<?xml version="1.0" encoding="UTF-8"?>
<svg xmlns="http://www.w3.org/2000/svg" viewBox="0 0 362.62 350.47">
  <defs>
    <style>
      .cls-1, .cls-2, .cls-3, .cls-4 {
        fill: none;
      }

      .cls-1, .cls-2, .cls-3, .cls-4, .cls-5, .cls-6, .cls-7, .cls-8, .cls-9 {
        stroke-miterlimit: 10;
      }

      .cls-1, .cls-3, .cls-4, .cls-5, .cls-6, .cls-7, .cls-8, .cls-9 {
        stroke: #383838;
      }

      .cls-1, .cls-3, .cls-6, .cls-8, .cls-9 {
        stroke-width: 6px;
      }

      .cls-10 {
        fill: #fff;
      }

      .cls-2 {
        stroke: #fff;
      }

      .cls-2, .cls-4 {
        stroke-width: 7px;
      }

      .cls-11 {
        font-family: Anton-Regular, Anton;
      }

      .cls-11, .cls-12 {
        fill: #eb640f;
        font-size: 14px;
      }

      .cls-13, .cls-14, .cls-9 {
        fill: #00a1c1;
      }

      .cls-3, .cls-6, .cls-8, .cls-9 {
        stroke-linecap: round;
      }

      .cls-15, .cls-7 {
        fill: #f7c050;
      }

      .cls-16 {
        isolation: isolate;
      }

      .cls-17, .cls-18, .cls-8, .cls-19 {
        fill: #e94c2b;
      }

      .cls-20, .cls-6, .cls-21 {
        fill: #383838;
      }

      .cls-20, .cls-14, .cls-19 {
        mix-blend-mode: multiply;
        opacity: .18;
      }

      .cls-18 {
        mix-blend-mode: soft-light;
      }

      .cls-5, .cls-7 {
        stroke-width: 4px;
      }

      .cls-5, .cls-22 {
        fill: #ffdf6b;
      }

      .cls-12 {
        font-family: DesignerRegular, Designer;
      }

      .cls-23 {
        fill: #ec6620;
        font-family: Bahnschrift-BoldSemiCondensed, Bahnschrift;
        font-size: 38.69px;
        font-variation-settings: 'wght' 700, 'wdth' 87;
        font-weight: 700;
      }
    </style>
  </defs>
  <g class="cls-16">
    <g id="Camada_2" data-name="Camada 2">
      <g id="Camada_1-2" data-name="Camada 1">
        <g>
          <path class="cls-13" d="m179.84,343.25C344.54,273.49,349.96,35.26,349.96,35.26c0,0-80.09-32.26-170.12-32.26S9.71,35.26,9.71,35.26c0,0,5.42,238.23,170.12,307.99Z"/>
          <path class="cls-14" d="m96,281.09c24.8-4.46,53.8-7.95,83.84-7.95s59.04,3.49,83.84,7.95c20.78-24.28,36.57-51.84,48.56-79.51-29.14-7.92-79.12-18.88-132.4-18.88s-103.26,10.97-132.4,18.88c11.99,27.67,27.77,55.23,48.56,79.51Z"/>
          <path class="cls-9" d="m179.84,343.25C344.54,273.49,349.96,35.26,349.96,35.26c0,0-80.09-32.26-170.12-32.26S9.71,35.26,9.71,35.26c0,0,5.42,238.23,170.12,307.99Z"/>
        </g>
        <g>
          <path class="cls-17" d="m181.67,322.36c-30.76-14.64-57.52-37.16-79.63-67.05-19.63-26.55-35.73-58.96-47.84-96.34-14.79-45.66-19.97-87.78-21.75-108.91,25.77-8.67,85.28-25.99,149.22-25.99s123.51,17.3,149.22,25.97c-1.78,21.12-6.96,63.26-21.76,108.93-12.11,37.38-28.2,69.8-47.84,96.34-22.11,29.89-48.86,52.41-79.63,67.05Z"/>
          <path class="cls-17" d="m181.67,322.36c30.76-14.64,57.52-37.16,79.63-67.05,19.63-26.55,35.73-58.96,47.84-96.34,14.79-45.67,19.98-87.81,21.76-108.93-25.71-8.67-85.06-25.97-149.22-25.97v298.29Z"/>
          <path class="cls-19" d="m181.67,183.75c-42.7,0-83.28,7.04-112.71,13.92,9.52,21.44,20.58,40.74,33.09,57.65,6.12,8.28,12.61,15.97,19.44,23.11,18.85-2.53,39.26-4.23,60.19-4.23s41.34,1.69,60.19,4.23c6.82-7.14,13.31-14.83,19.44-23.11,12.51-16.91,23.57-36.21,33.09-57.65-29.43-6.87-70.01-13.92-112.71-13.92Z"/>
          <path class="cls-18" d="m111.39,261.98c-19.63-26.55-35.73-58.96-47.84-96.34-14.79-45.66-19.97-87.78-21.75-108.91,25.77-8.67,85.28-25.99,149.22-25.99,57.12,0,110.41,13.71,139.56,22.84.11-1.23.22-2.42.31-3.54-25.71-8.67-85.06-25.97-149.22-25.97S58.22,41.39,32.46,50.05c1.78,21.13,6.97,63.26,21.75,108.91,12.11,37.38,28.2,69.8,47.84,96.34,15.78,21.34,33.94,38.9,54.23,52.54-16.55-12.55-31.57-27.86-44.89-45.86Z"/>
          <path class="cls-8" d="m181.67,322.36c-30.76-14.64-57.52-37.16-79.63-67.05-19.63-26.55-35.73-58.96-47.84-96.34-14.79-45.66-19.97-87.78-21.75-108.91,25.77-8.67,85.28-25.99,149.22-25.99s123.51,17.3,149.22,25.97c-1.78,21.12-6.96,63.26-21.76,108.93-12.11,37.38-28.2,69.8-47.84,96.34-22.11,29.89-48.86,52.41-79.63,67.05Z"/>
        </g>
        <path class="cls-21" d="m89.07,162.75c0-4.25-3.45-7.7-7.7-7.7s-7.7,3.45-7.7,7.7,3.45,7.7,7.7,7.7,7.7-3.45,7.7-7.7Z"/>
        <circle class="cls-21" cx="281.98" cy="162.75" r="7.7" transform="translate(76.17 415.02) rotate(-80.78)"/>
        <g>
          <g>
            <polygon class="cls-21" points="58.93 116.38 97.53 97.13 99.85 139.11 58.93 116.38"/>
            <path class="cls-21" d="m94.79,101.85l1.77,32-31.19-17.33,29.42-14.67m5.49-9.44l-47.78,23.83,50.65,28.14-2.87-51.97h0Z"/>
          </g>
          <g>
            <polygon class="cls-21" points="265.81 97.13 304.41 116.38 263.49 139.11 265.81 97.13"/>
            <path class="cls-21" d="m268.56,101.85l29.42,14.67-31.19,17.33,1.77-32m-5.49-9.44l-2.87,51.97,50.65-28.14-47.78-23.83h0Z"/>
          </g>
        </g>
        <path class="cls-10" d="m280.65,50.47c-13.58,102.35-49.49,198.08-98.97,258.13-49.49-60.05-85.4-155.77-98.97-258.13h197.94Z"/>
        <path class="cls-3" d="m280.65,50.47c-13.58,102.35-49.49,198.08-98.97,258.13-49.49-60.05-85.4-155.77-98.97-258.13h197.94Z"/>
        <path class="cls-6" d="m265.44,34.39c-12.16,91.26-42.17,177.25-83.77,237.38-41.61-60.13-71.61-146.12-83.77-237.38h167.54Z"/>
        <g>
          <path class="cls-22" d="m268.98,17.65c-13.9,75.36-44.62,161.86-87.31,223.57-42.69-61.71-73.41-148.21-87.31-223.57h174.62Z"/>
          <path class="cls-15" d="m180.91,240.1c.25.37.5.75.76,1.12,42.69-61.71,73.42-148.21,87.31-223.57h-88.07v222.45Z"/>
          <path class="cls-20" d="m181.67,241.22c12.52-18.1,24.01-38.35,34.35-59.81-11.17-.93-22.68-1.48-34.35-1.48s-23.18.54-34.35,1.48c10.34,21.46,21.83,41.71,34.35,59.81Z"/>
          <path class="cls-3" d="m268.98,17.65c-13.9,75.36-44.62,161.86-87.31,223.57-42.69-61.71-73.41-148.21-87.31-223.57h174.62Z"/>
        </g>
        <g>
          <path class="cls-10" d="m181.67,37.11c54.88,0,106.6,13.3,137.78,22.32-1.31,12.03-4.87,38.63-8.6,56.8-31.6-8.68-78.37-17.6-129.18-17.6s-97.58,8.93-129.18,17.6c-3.74-18.16-7.29-44.77-8.6-56.8,31.18-9.02,82.9-22.32,137.78-22.32Z"/>
          <path class="cls-21" d="m181.67,43.12c55.29,0,108.61,14.23,131.24,20.68-1.46,12.16-4.04,30.51-6.72,44.98-25.86-6.69-71.75-16.15-124.52-16.15s-98.66,9.46-124.52,16.15c-2.68-14.47-5.27-32.82-6.72-44.98,22.63-6.46,75.95-20.68,131.24-20.68m0-6c-54.88,0-106.6,13.3-137.78,22.32,1.31,12.03,4.87,38.63,8.6,56.8,31.6-8.68,78.37-17.6,129.18-17.6s97.58,8.93,129.18,17.6c3.74-18.16,7.29-44.77,8.6-56.8-31.18-9.02-82.9-22.32-137.78-22.32h0Z"/>
        </g>
        <g>
          <text class="cls-23" transform="translate(56.5 99.26) rotate(-13.83)"><tspan x="0" y="0"> </tspan></text>
          <text class="cls-23" transform="translate(66.37 96.8) rotate(-12.2)"><tspan x="0" y="0">J</tspan></text>
          <text class="cls-23" transform="translate(83.72 93.12) rotate(-10.65)"><tspan x="0" y="0">I</tspan></text>
          <text class="cls-23" transform="translate(93.58 91.2) rotate(-8.93)"><tspan x="0" y="0">C</tspan></text>
          <text class="cls-23" transform="translate(113.66 88.04) rotate(-6.65)"><tspan x="0" y="0">S</tspan></text>
          <text class="cls-23" transform="translate(134.85 85.67) rotate(-4.85)"><tspan x="0" y="0"> </tspan></text>
          <text class="cls-23" transform="translate(145.03 84.82) rotate(-3.64)"><tspan x="0" y="0">I</tspan></text>
          <text class="cls-23" transform="translate(155.05 84.13) rotate(-1.86)"><tspan x="0" y="0">F</tspan></text>
          <text class="cls-23" transform="translate(174.36 83.5) rotate(.8)"><tspan x="0" y="0">P</tspan></text>
          <text class="cls-23" transform="translate(195.46 83.84) rotate(3.34)"><tspan x="0" y="0">E</tspan></text>
          <text class="cls-23" transform="translate(215.35 85.09) rotate(5.12)"><tspan x="0" y="0"> </tspan></text>
          <text class="cls-23" transform="translate(225.49 85.95) rotate(6.78)"><tspan x="0" y="0">2</tspan></text>
          <text class="cls-23" transform="translate(244.15 88.18) rotate(8.92)"><tspan x="0" y="0">0</tspan></text>
          <text class="cls-23" transform="translate(263.64 91.27) rotate(11.05)"><tspan x="0" y="0">2</tspan></text>
          <text class="cls-23" transform="translate(282.05 94.88) rotate(13.19)"><tspan x="0" y="0">3</tspan></text>
        </g>
        <path class="cls-7" d="m289.33,32.19c5.54-2.18,12.22-4.81,20.67-5.88,5.23-.66,28.46-3.81,41.17,8.91,14.72,14.74,8.38,40.9,6.24,49.72-9.85,40.59-47.27,60.5-56.49,65.41-25.03,13.31-60.27,21.18-66.65,10.9-2.99-4.82-.65-15.04,3.56-16.79,1.77-.74,5.02-.45,8.02-.18,1.74.16,2.76.36,3.92.53,1.21.18,5.71.65,10.92.36,5.95-.33,10.95-1.49,14.21-2.32,8.54-2.18,16.43-4.19,24.95-8.55,14.83-7.59,23.55-18.17,28.16-23.88,6.37-7.89,17.94-22.61,19.25-43.13.43-6.83.82-14.61-4.28-20.67-6.36-7.56-17.26-7.74-23.52-7.84-14.29-.23-25.6,5.99-27.62,7.13-11,6.22-16.3,14.29-21.74,12.12-2.82-1.12-5.9-5.08-6.24-5.52-1.46-1.91-3.03-5.53-3.03-5.52h0c21.88-12.18,28.51-14.79,28.51-14.79Z"/>
        <line class="cls-4" x1="232.92" y1="167.08" x2="242.36" y2="138.65"/>
        <line class="cls-2" x1="258.38" y1="54.43" x2="284.78" y2="60.07"/>
        <path class="cls-5" d="m73.79,31.81c-5.51-2.28-12.13-5.01-20.57-6.23-5.21-.75-28.39-4.29-41.31,8.22-14.97,14.49-9.06,40.75-7.07,49.61,9.16,40.75,46.24,61.28,55.39,66.35,24.8,13.73,59.91,22.19,66.46,12.02,3.07-4.77.9-15.02-3.28-16.84-1.76-.77-5.01-.53-8.02-.31-1.74.13-2.76.31-3.93.47-1.22.16-5.72.55-10.92.17-5.94-.43-10.93-1.67-14.17-2.56-8.5-2.32-16.35-4.47-24.8-8.97-14.7-7.84-23.24-18.57-27.75-24.35-6.24-8-17.56-22.91-18.52-43.45-.32-6.84-.57-14.62,4.62-20.6,6.48-7.46,17.39-7.45,23.65-7.44,14.3,0,25.5,6.42,27.5,7.59,10.9,6.4,16.06,14.56,21.54,12.48,2.84-1.08,5.98-4.98,6.33-5.42,1.49-1.88,3.12-5.47,3.12-5.47h0c-21.67-12.55-28.26-15.27-28.26-15.27Z"/>
        <line class="cls-1" x1="259.62" y1="47.86" x2="292.12" y2="55.35"/>
        <line class="cls-1" x1="78.17" y1="53.39" x2="100.8" y2="48.44"/>
        <line class="cls-2" x1="81.74" y1="59.25" x2="102.53" y2="54.88"/>
        <line class="cls-1" x1="118.85" y1="133.97" x2="129.17" y2="165.96"/>
        <g>
          <g>
            <path class="cls-10" d="m78.54,337.3c-23.85,4.1-44.11,9.19-58.15,13.17L.84,286.52s22.3-8.1,56.21-15.4l21.49,66.18Z"/>
            <path class="cls-21" d="m53.03,278.15l17.68,54.45c-18.55,3.43-34.57,7.35-46.29,10.52l-16.14-52.8c7.84-2.56,23.78-7.45,44.75-12.18m4.03-7.03c-33.91,7.3-56.21,15.4-56.21,15.4l19.55,63.95c14.04-3.97,34.3-9.07,58.15-13.17l-21.49-66.18h0Z"/>
          </g>
          <g>
            <path class="cls-10" d="m278.36,337.3c23.85,4.1,44.11,9.19,58.15,13.17l19.55-63.95s-22.3-8.1-56.21-15.4l-21.49,66.18Z"/>
            <path class="cls-21" d="m303.87,278.15c20.93,4.72,36.89,9.61,44.75,12.18l-16.14,52.8c-11.71-3.17-27.74-7.1-46.29-10.52l17.68-54.45m-4.03-7.03l-21.49,66.18c23.85,4.1,44.11,9.19,58.15,13.17l19.55-63.95s-22.3-8.1-56.21-15.4h0Z"/>
          </g>
          <g>
            <polygon class="cls-21" points="47.22 322.79 80.64 300.11 76.07 333.22 47.22 322.79"/>
            <path class="cls-21" d="m76.74,306.37l-3.14,22.77-19.84-7.17,22.97-15.6m7.78-12.54h0,0Zm0,0l-43.86,29.78,37.87,13.69,5.99-43.46h0Z"/>
          </g>
          <g>
            <polygon class="cls-21" points="276.27 300.11 309.68 322.79 280.83 333.22 276.27 300.11"/>
            <path class="cls-21" d="m280.16,306.37l22.97,15.6-19.84,7.17-3.14-22.77m-7.78-12.54l5.99,43.46,37.87-13.69-43.86-29.78h0Z"/>
          </g>
          <g>
            <path class="cls-10" d="m178.45,303.24c56.72,0,109.71,12.43,137.78,20.38l20.88-63.95s-75.3-26.85-158.67-26.85-158.67,26.85-158.67,26.85l20.88,63.95c28.08-7.95,81.06-20.38,137.78-20.38Z"/>
            <path class="cls-21" d="m178.45,238.81c68.55,0,132.34,18.65,151.11,24.66l-17.25,52.83c-28.6-7.76-79.61-19.06-133.86-19.06s-105.25,11.31-133.86,19.06l-17.25-52.83c18.77-6.01,82.56-24.66,151.11-24.66m0-6c-83.37,0-158.67,26.85-158.67,26.85l20.88,63.95c28.08-7.95,81.06-20.38,137.78-20.38s109.71,12.43,137.78,20.38l20.88-63.95s-75.3-26.85-158.67-26.85h0Z"/>
          </g>
        </g>
        <g>
          <text class="cls-12" transform="translate(46.83 279.85) rotate(-14.68)"><tspan x="0" y="0">E</tspan></text>
          <text class="cls-12" transform="translate(56.89 277.22) rotate(-13.64)"><tspan x="0" y="0">d</tspan></text>
          <text class="cls-12" transform="translate(66.88 274.81) rotate(-12.91)"><tspan x="0" y="0">i</tspan></text>
          <text class="cls-12" transform="translate(71.1 273.83) rotate(-12.23)"><tspan x="0" y="0">f</tspan></text>
          <text class="cls-12" transform="translate(80.25 271.86) rotate(-11.56)"><tspan x="0" y="0">i</tspan></text>
          <text class="cls-12" transform="translate(84.51 270.98) rotate(-10.89)"><tspan x="0" y="0">c</tspan></text>
          <text class="cls-12" transform="translate(93.28 269.28) rotate(-9.88)"><tspan x="0" y="0">a</tspan></text>
          <text class="cls-12" transform="translate(103.91 267.43) rotate(-8.85)"><tspan x="0" y="0">ç</tspan></text>
          <text class="cls-12" transform="translate(112.74 266.05) rotate(-7.77)"><tspan x="0" y="0">õ</tspan></text>
          <text class="cls-12" transform="translate(123.81 264.55) rotate(-6.6)"><tspan x="0" y="0">e</tspan></text>
          <text class="cls-12" transform="translate(133.36 263.44) rotate(-5.44)"><tspan x="0" y="0">s</tspan></text>
          <text class="cls-12" transform="translate(143.58 262.48) rotate(-4.44)"><tspan x="0" y="0"> </tspan></text>
          <text class="cls-12" transform="translate(149.75 262) rotate(-3.65)"><tspan x="0" y="0"> </tspan></text>
          <text class="cls-11" transform="translate(155.95 261.61) rotate(-3.04)"><tspan x="0" y="0">·</tspan></text>
          <text class="cls-11" transform="translate(160.59 261.37) rotate(-2.42)"><tspan x="0" y="0"> </tspan></text>
          <text class="cls-12" transform="translate(165.23 261.15) rotate(-1.25)"><tspan x="0" y="0">S</tspan></text>
          <text class="cls-12" transform="translate(176.3 260.91) rotate(.25)"><tspan x="0" y="0">e</tspan></text>
          <text class="cls-12" transform="translate(185.91 260.95) rotate(1.69)"><tspan x="0" y="0">g</tspan></text>
          <text class="cls-12" transform="translate(196.62 261.29) rotate(2.83)"><tspan x="0" y="0"> </tspan></text>
          <text class="cls-12" transform="translate(202.79 261.58) rotate(3.9)"><tspan x="0" y="0">d</tspan></text>
          <text class="cls-12" transform="translate(213.04 262.27) rotate(5.22)"><tspan x="0" y="0">o</tspan></text>
          <text class="cls-12" transform="translate(224.17 263.31) rotate(6.25)"><tspan x="0" y="0"> </tspan></text>
          <text class="cls-12" transform="translate(230.32 263.97) rotate(7.12)"><tspan x="0" y="0">t</tspan></text>
          <text class="cls-12" transform="translate(239.38 265.1) rotate(8.21)"><tspan x="0" y="0">r</tspan></text>
          <text class="cls-12" transform="translate(249.95 266.62) rotate(9.36)"><tspan x="0" y="0">a</tspan></text>
          <text class="cls-12" transform="translate(260.7 268.4) rotate(10.48)"><tspan x="0" y="0">b</tspan></text>
          <text class="cls-12" transform="translate(271.21 270.34) rotate(11.56)"><tspan x="0" y="0">a</tspan></text>
          <text class="cls-12" transform="translate(281.87 272.53) rotate(12.52)"><tspan x="0" y="0">l</tspan></text>
          <text class="cls-12" transform="translate(290.27 274.39) rotate(13.47)"><tspan x="0" y="0">h</tspan></text>
          <text class="cls-12" transform="translate(300.38 276.8) rotate(14.55)"><tspan x="0" y="0">o</tspan></text>
          <text class="cls-11" transform="translate(311.19 279.63) rotate(15.3)"><tspan x="0" y="0"> </tspan></text>
          <text class="cls-11" transform="translate(315.68 280.87) rotate(15.8)"><tspan x="0" y="0"> </tspan></text>
        </g>
        <g>
          <text class="cls-12" transform="translate(57.47 296.99) rotate(-13.22)"><tspan x="0" y="0">M</tspan></text>
          <text class="cls-12" transform="translate(70.92 293.85) rotate(-12.06)"><tspan x="0" y="0">e</tspan></text>
          <text class="cls-12" transform="translate(80.34 291.84) rotate(-11.14)"><tspan x="0" y="0">c</tspan></text>
          <text class="cls-12" transform="translate(89.1 290.11) rotate(-10.13)"><tspan x="0" y="0">a</tspan></text>
          <text class="cls-12" transform="translate(98.62 288.4) rotate(-9.22)"><tspan x="0" y="0">t</tspan></text>
          <text class="cls-12" transform="translate(107.61 286.93) rotate(-8.16)"><tspan x="0" y="0">r</tspan></text>
          <text class="cls-12" transform="translate(118.17 285.42) rotate(-6.96)"><tspan x="0" y="0">ô</tspan></text>
          <text class="cls-12" transform="translate(129.27 284.06) rotate(-5.69)"><tspan x="0" y="0">n</tspan></text>
          <text class="cls-12" transform="translate(140 283.02) rotate(-4.78)"><tspan x="0" y="0">i</tspan></text>
          <text class="cls-12" transform="translate(144.33 282.64) rotate(-3.95)"><tspan x="0" y="0">c</tspan></text>
          <text class="cls-12" transform="translate(153.2 282.01) rotate(-2.67)"><tspan x="0" y="0">a</tspan></text>
          <text class="cls-12" transform="translate(164.12 281.53) rotate(-1.5)"><tspan x="0" y="0"> </tspan></text>
          <text class="cls-11" transform="translate(170.29 281.38) rotate(-.84)"><tspan x="0" y="0">·</tspan></text>
          <text class="cls-12" transform="translate(174.95 281.3) rotate(.25)"><tspan x="0" y="0"> </tspan></text>
          <text class="cls-12" transform="translate(181.13 281.29) rotate(1.25)"><tspan x="0" y="0">E</tspan></text>
          <text class="cls-12" transform="translate(191.49 281.51) rotate(2.75)"><tspan x="0" y="0">N</tspan></text>
          <text class="cls-12" transform="translate(203.14 282.07) rotate(4.19)"><tspan x="0" y="0">g</tspan></text>
          <text class="cls-12" transform="translate(213.82 282.88) rotate(5.23)"><tspan x="0" y="0"> </tspan></text>
          <text class="cls-12" transform="translate(219.98 283.4) rotate(6.41)"><tspan x="0" y="0">M</tspan></text>
          <text class="cls-12" transform="translate(233.7 284.97) rotate(7.73)"><tspan x="0" y="0">e</tspan></text>
          <text class="cls-12" transform="translate(243.24 286.27) rotate(8.73)"><tspan x="0" y="0">c</tspan></text>
          <text class="cls-12" transform="translate(252.07 287.61) rotate(9.77)"><tspan x="0" y="0">â</tspan></text>
          <text class="cls-12" transform="translate(262.81 289.46) rotate(10.88)"><tspan x="0" y="0">n</tspan></text>
          <text class="cls-12" transform="translate(273.41 291.52) rotate(11.64)"><tspan x="0" y="0">i</tspan></text>
          <text class="cls-12" transform="translate(277.69 292.39) rotate(12.3)"><tspan x="0" y="0">c</tspan></text>
          <text class="cls-12" transform="translate(286.4 294.28) rotate(13.28)"><tspan x="0" y="0">a</tspan></text>
        </g>
      </g>
    </g>
  </g>
</svg>